<svg xmlns="http://www.w3.org/2000/svg" width="850.459" height="904.705" viewBox="0 0 850.459 904.705">
  <path id="Path_5" data-name="Path 5" d="M411.991,55.671c13.942,2.807,32.318,6.052,53.041,11.9a308.115,308.115,0,0,1,64.6,26.006c21.967,11.993,44.966,28.294,68.361,51.248,23.109,22.674,47.294,52.517,72.584,93,25.957,41.548,49.182,80.677,68.811,116.644,20.236,37.078,36.748,70.975,48.575,100.9,12.268,31.044,19.575,58.022,20.778,80.046,1.258,23.037-4.153,40.857-17.721,52.362-14.355,12.171-38.725,22.013-69.458,28.769-33.308,7.323-74.5,11.111-117.919,10-47.17-1.2-96.185-8.158-137.478-22.221-43.453-14.8-75.971-36.641-85.933-65.083-9.74-27.808-37.662-71.028-72.092-120.891C274.129,369.1,233.678,313.232,198.591,260.077c-34.523-52.3-63.491-101.426-75.226-137.617-11.359-35.032-6.317-57.173,24.81-57.833,29.359-.623,57.934-2.48,84.965-4.6,25.505-2,49.678-4.239,72.08-5.914,21.26-1.589,41.06-2.681,59.145-2.591C381.694,51.607,397.623,52.779,411.991,55.671Z" fill="#dcdcdc" opacity="0.3"/>
</svg>
