<svg xmlns="http://www.w3.org/2000/svg" width="130" height="126" viewBox="0 0 130 126">
  <g id="Polygon_1" data-name="Polygon 1" transform="translate(10 10)" fill="#fff" stroke-linecap="round" stroke-linejoin="round" opacity="0.45">
    <path d="M 85.53865814208984 111 L 82.5 111 L 27.5 111 L 24.46134567260742 111 L 23.06185531616211 108.3028030395508 L -4.438145637512207 55.30279922485352 L -5.632999897003174 53 L -4.438145637512207 50.69720077514648 L 23.06185531616211 -2.302799940109253 L 24.46134567260742 -5 L 27.5 -5 L 82.5 -5 L 85.53865814208984 -5 L 86.93814849853516 -2.302799940109253 L 114.4381484985352 50.69720077514648 L 115.6330032348633 53 L 114.4381484985352 55.30279922485352 L 86.93814849853516 108.3028030395508 L 85.53865814208984 111 Z" stroke="none"/>
    <path d="M 27.5 0 L 0 53 L 27.5 106 L 82.5 106 L 110 53 L 82.5 0 L 27.5 0 M 27.5 -10 L 82.5 -10 C 86.23381042480469 -10 89.6566162109375 -7.91986083984375 91.37628173828125 -4.605621337890625 L 118.8762817382812 48.39438247680664 C 120.3745727539062 51.28200149536133 120.3745727539062 54.71799850463867 118.8762817382812 57.60561752319336 L 91.37628173828125 110.6056213378906 C 89.6566162109375 113.9198608398438 86.23381042480469 116 82.5 116 L 27.5 116 C 23.76618957519531 116 20.3433837890625 113.9198608398438 18.62371063232422 110.6056213378906 L -8.876289367675781 57.60561752319336 C -10.37457275390625 54.71799850463867 -10.37457275390625 51.28200149536133 -8.876289367675781 48.39438247680664 L 18.62371063232422 -4.605621337890625 C 20.3433837890625 -7.91986083984375 23.76618957519531 -10 27.5 -10 Z" stroke="none" fill="#0155e5"/>
  </g>
</svg>
