<svg xmlns="http://www.w3.org/2000/svg" width="90" height="90" viewBox="0 0 90 90">
  <g id="Polygon_2" data-name="Polygon 2" transform="translate(10 10)" fill="#fff" stroke-linecap="round" stroke-linejoin="round" opacity="0.48">
    <path d="M 55.59017181396484 75 L 52.5 75 L 17.5 75 L 14.40982627868652 75 L 13.02786636352539 72.23606872558594 L -4.472133159637451 37.23606491088867 L -5.590173244476318 35 L -4.472133159637451 32.76393508911133 L 13.02786636352539 -2.236066579818726 L 14.40982627868652 -5 L 17.5 -5 L 52.5 -5 L 55.59017181396484 -5 L 56.97213363647461 -2.236066579818726 L 74.47212982177734 32.76393508911133 L 75.59017181396484 35 L 74.47212982177734 37.23606491088867 L 56.97213363647461 72.23606872558594 L 55.59017181396484 75 Z" stroke="none"/>
    <path d="M 17.5 0 L 0 35 L 17.5 70 L 52.5 70 L 70 35 L 52.5 0 L 17.5 0 M 17.5 -10 L 52.5 -10 C 56.2877197265625 -10 59.75035858154297 -7.859977722167969 61.44427871704102 -4.472137451171875 L 78.94428253173828 30.52785873413086 C 80.35189819335938 33.3431396484375 80.35189819335938 36.6568603515625 78.94428253173828 39.47213745117188 L 61.44427871704102 74.47213745117188 C 59.75035858154297 77.85997772216797 56.2877197265625 80 52.5 80 L 17.5 80 C 13.7122802734375 80 10.24964141845703 77.85997772216797 8.555721282958984 74.47213745117188 L -8.944282531738281 39.47213745117188 C -10.35189819335938 36.6568603515625 -10.35189819335938 33.3431396484375 -8.944282531738281 30.52785873413086 L 8.555721282958984 -4.472137451171875 C 10.24964141845703 -7.859977722167969 13.7122802734375 -10 17.5 -10 Z" stroke="none" fill="#0155e5"/>
  </g>
</svg>
