<svg xmlns="http://www.w3.org/2000/svg" xmlns:xlink="http://www.w3.org/1999/xlink" width="211" height="25" viewBox="0 0 211 25">
  <defs>
    <clipPath id="clip-path">
      <rect width="211" height="25" fill="none"/>
    </clipPath>
  </defs>
  <g id="Repeat_Grid_3" data-name="Repeat Grid 3" clip-path="url(#clip-path)">
    <g transform="translate(-934 -251)">
      <g id="Polygon_5" data-name="Polygon 5" transform="translate(934 251)" fill="#0155e5">
        <path d="M 20.15472412109375 23.7787914276123 L 13.28557014465332 18.99939918518066 L 13 18.80071067810059 L 12.71442985534668 18.99939918518066 L 5.84527587890625 23.7787914276123 L 8.22113037109375 15.6879997253418 L 8.317230224609375 15.36075973510742 L 8.047619819641113 15.15186977386475 L 1.414713621139526 10.01274490356445 L 9.762920379638672 9.796950340270996 L 10.10805988311768 9.788029670715332 L 10.22198963165283 9.462109565734863 L 13 1.515189290046692 L 15.77801036834717 9.462109565734863 L 15.89194011688232 9.788029670715332 L 16.23707962036133 9.796950340270996 L 24.58528709411621 10.01274490356445 L 17.95237922668457 15.15186977386475 L 17.68276977539062 15.36075973510742 L 17.77886962890625 15.6879997253418 L 20.15472412109375 23.7787914276123 Z" stroke="none"/>
        <path d="M 13 3.030387878417969 L 10.46611976623535 10.27894020080566 L 2.829437255859375 10.47634887695312 L 8.893060684204102 15.17440032958984 L 6.724998474121094 22.55758666992188 L 13 18.19158935546875 L 19.27500152587891 22.55758666992188 L 17.10694122314453 15.17440032958984 L 23.17056274414062 10.47634887695312 L 15.53388023376465 10.27894020080566 L 13 3.030387878417969 M 13 0 L 16.25 9.297120094299316 L 26 9.549150466918945 L 18.25860977172852 15.54712009429932 L 21.03443908691406 25 L 13 19.40983009338379 L 4.965560913085938 25 L 7.741390228271484 15.54712009429932 L 0 9.549150466918945 L 9.75 9.297120094299316 L 13 0 Z" stroke="none" fill="gold"/>
      </g>
    </g>
    <g transform="translate(-888 -251)">
      <g id="Polygon_5-2" data-name="Polygon 5" transform="translate(934 251)" fill="#0155e5">
        <path d="M 20.15472412109375 23.7787914276123 L 13.28557014465332 18.99939918518066 L 13 18.80071067810059 L 12.71442985534668 18.99939918518066 L 5.84527587890625 23.7787914276123 L 8.22113037109375 15.6879997253418 L 8.317230224609375 15.36075973510742 L 8.047619819641113 15.15186977386475 L 1.414713621139526 10.01274490356445 L 9.762920379638672 9.796950340270996 L 10.10805988311768 9.788029670715332 L 10.22198963165283 9.462109565734863 L 13 1.515189290046692 L 15.77801036834717 9.462109565734863 L 15.89194011688232 9.788029670715332 L 16.23707962036133 9.796950340270996 L 24.58528709411621 10.01274490356445 L 17.95237922668457 15.15186977386475 L 17.68276977539062 15.36075973510742 L 17.77886962890625 15.6879997253418 L 20.15472412109375 23.7787914276123 Z" stroke="none"/>
        <path d="M 13 3.030387878417969 L 10.46611976623535 10.27894020080566 L 2.829437255859375 10.47634887695312 L 8.893060684204102 15.17440032958984 L 6.724998474121094 22.55758666992188 L 13 18.19158935546875 L 19.27500152587891 22.55758666992188 L 17.10694122314453 15.17440032958984 L 23.17056274414062 10.47634887695312 L 15.53388023376465 10.27894020080566 L 13 3.030387878417969 M 13 0 L 16.25 9.297120094299316 L 26 9.549150466918945 L 18.25860977172852 15.54712009429932 L 21.03443908691406 25 L 13 19.40983009338379 L 4.965560913085938 25 L 7.741390228271484 15.54712009429932 L 0 9.549150466918945 L 9.75 9.297120094299316 L 13 0 Z" stroke="none" fill="gold"/>
      </g>
    </g>
    <g transform="translate(-842 -251)">
      <g id="Polygon_5-3" data-name="Polygon 5" transform="translate(934 251)" fill="#0155e5">
        <path d="M 20.15472412109375 23.7787914276123 L 13.28557014465332 18.99939918518066 L 13 18.80071067810059 L 12.71442985534668 18.99939918518066 L 5.84527587890625 23.7787914276123 L 8.22113037109375 15.6879997253418 L 8.317230224609375 15.36075973510742 L 8.047619819641113 15.15186977386475 L 1.414713621139526 10.01274490356445 L 9.762920379638672 9.796950340270996 L 10.10805988311768 9.788029670715332 L 10.22198963165283 9.462109565734863 L 13 1.515189290046692 L 15.77801036834717 9.462109565734863 L 15.89194011688232 9.788029670715332 L 16.23707962036133 9.796950340270996 L 24.58528709411621 10.01274490356445 L 17.95237922668457 15.15186977386475 L 17.68276977539062 15.36075973510742 L 17.77886962890625 15.6879997253418 L 20.15472412109375 23.7787914276123 Z" stroke="none"/>
        <path d="M 13 3.030387878417969 L 10.46611976623535 10.27894020080566 L 2.829437255859375 10.47634887695312 L 8.893060684204102 15.17440032958984 L 6.724998474121094 22.55758666992188 L 13 18.19158935546875 L 19.27500152587891 22.55758666992188 L 17.10694122314453 15.17440032958984 L 23.17056274414062 10.47634887695312 L 15.53388023376465 10.27894020080566 L 13 3.030387878417969 M 13 0 L 16.25 9.297120094299316 L 26 9.549150466918945 L 18.25860977172852 15.54712009429932 L 21.03443908691406 25 L 13 19.40983009338379 L 4.965560913085938 25 L 7.741390228271484 15.54712009429932 L 0 9.549150466918945 L 9.75 9.297120094299316 L 13 0 Z" stroke="none" fill="gold"/>
      </g>
    </g>
    <g transform="translate(-796 -251)">
      <g id="Polygon_5-4" data-name="Polygon 5" transform="translate(934 251)" fill="#0155e5">
        <path d="M 20.15472412109375 23.7787914276123 L 13.28557014465332 18.99939918518066 L 13 18.80071067810059 L 12.71442985534668 18.99939918518066 L 5.84527587890625 23.7787914276123 L 8.22113037109375 15.6879997253418 L 8.317230224609375 15.36075973510742 L 8.047619819641113 15.15186977386475 L 1.414713621139526 10.01274490356445 L 9.762920379638672 9.796950340270996 L 10.10805988311768 9.788029670715332 L 10.22198963165283 9.462109565734863 L 13 1.515189290046692 L 15.77801036834717 9.462109565734863 L 15.89194011688232 9.788029670715332 L 16.23707962036133 9.796950340270996 L 24.58528709411621 10.01274490356445 L 17.95237922668457 15.15186977386475 L 17.68276977539062 15.36075973510742 L 17.77886962890625 15.6879997253418 L 20.15472412109375 23.7787914276123 Z" stroke="none"/>
        <path d="M 13 3.030387878417969 L 10.46611976623535 10.27894020080566 L 2.829437255859375 10.47634887695312 L 8.893060684204102 15.17440032958984 L 6.724998474121094 22.55758666992188 L 13 18.19158935546875 L 19.27500152587891 22.55758666992188 L 17.10694122314453 15.17440032958984 L 23.17056274414062 10.47634887695312 L 15.53388023376465 10.27894020080566 L 13 3.030387878417969 M 13 0 L 16.25 9.297120094299316 L 26 9.549150466918945 L 18.25860977172852 15.54712009429932 L 21.03443908691406 25 L 13 19.40983009338379 L 4.965560913085938 25 L 7.741390228271484 15.54712009429932 L 0 9.549150466918945 L 9.75 9.297120094299316 L 13 0 Z" stroke="none" fill="gold"/>
      </g>
    </g>
    <g transform="translate(-750 -251)">
      <g id="Polygon_5-5" data-name="Polygon 5" transform="translate(934 251)" fill="#0155e5">
        <path d="M 20.15472412109375 23.7787914276123 L 13.28557014465332 18.99939918518066 L 13 18.80071067810059 L 12.71442985534668 18.99939918518066 L 5.84527587890625 23.7787914276123 L 8.22113037109375 15.6879997253418 L 8.317230224609375 15.36075973510742 L 8.047619819641113 15.15186977386475 L 1.414713621139526 10.01274490356445 L 9.762920379638672 9.796950340270996 L 10.10805988311768 9.788029670715332 L 10.22198963165283 9.462109565734863 L 13 1.515189290046692 L 15.77801036834717 9.462109565734863 L 15.89194011688232 9.788029670715332 L 16.23707962036133 9.796950340270996 L 24.58528709411621 10.01274490356445 L 17.95237922668457 15.15186977386475 L 17.68276977539062 15.36075973510742 L 17.77886962890625 15.6879997253418 L 20.15472412109375 23.7787914276123 Z" stroke="none"/>
        <path d="M 13 3.030387878417969 L 10.46611976623535 10.27894020080566 L 2.829437255859375 10.47634887695312 L 8.893060684204102 15.17440032958984 L 6.724998474121094 22.55758666992188 L 13 18.19158935546875 L 19.27500152587891 22.55758666992188 L 17.10694122314453 15.17440032958984 L 23.17056274414062 10.47634887695312 L 15.53388023376465 10.27894020080566 L 13 3.030387878417969 M 13 0 L 16.25 9.297120094299316 L 26 9.549150466918945 L 18.25860977172852 15.54712009429932 L 21.03443908691406 25 L 13 19.40983009338379 L 4.965560913085938 25 L 7.741390228271484 15.54712009429932 L 0 9.549150466918945 L 9.75 9.297120094299316 L 13 0 Z" stroke="none" fill="gold"/>
      </g>
    </g>
  </g>
</svg>
