<svg xmlns="http://www.w3.org/2000/svg" xmlns:xlink="http://www.w3.org/1999/xlink" width="382" height="278" viewBox="0 0 382 278">
  <defs>
    <clipPath id="clip-path">
      <rect width="382" height="278" fill="none"/>
    </clipPath>
  </defs>
  <g id="Repeat_Grid_1" data-name="Repeat Grid 1" clip-path="url(#clip-path)">
    <g transform="translate(-1539 -211)">
      <text id="_." data-name="." transform="translate(1539 265)" fill="#0155e5" font-size="50" font-family="SegoeUI, Segoe UI"><tspan x="0" y="0">.</tspan></text>
    </g>
    <g transform="translate(-1498 -211)">
      <text id="_.-2" data-name="." transform="translate(1539 265)" fill="#0155e5" font-size="50" font-family="SegoeUI, Segoe UI"><tspan x="0" y="0">.</tspan></text>
    </g>
    <g transform="translate(-1457 -211)">
      <text id="_.-3" data-name="." transform="translate(1539 265)" fill="#0155e5" font-size="50" font-family="SegoeUI, Segoe UI"><tspan x="0" y="0">.</tspan></text>
    </g>
    <g transform="translate(-1416 -211)">
      <text id="_.-4" data-name="." transform="translate(1539 265)" fill="#0155e5" font-size="50" font-family="SegoeUI, Segoe UI"><tspan x="0" y="0">.</tspan></text>
    </g>
    <g transform="translate(-1375 -211)">
      <text id="_.-5" data-name="." transform="translate(1539 265)" fill="#0155e5" font-size="50" font-family="SegoeUI, Segoe UI"><tspan x="0" y="0">.</tspan></text>
    </g>
    <g transform="translate(-1334 -211)">
      <text id="_.-6" data-name="." transform="translate(1539 265)" fill="#0155e5" font-size="50" font-family="SegoeUI, Segoe UI"><tspan x="0" y="0">.</tspan></text>
    </g>
    <g transform="translate(-1293 -211)">
      <text id="_.-7" data-name="." transform="translate(1539 265)" fill="#0155e5" font-size="50" font-family="SegoeUI, Segoe UI"><tspan x="0" y="0">.</tspan></text>
    </g>
    <g transform="translate(-1252 -211)">
      <text id="_.-8" data-name="." transform="translate(1539 265)" fill="#0155e5" font-size="50" font-family="SegoeUI, Segoe UI"><tspan x="0" y="0">.</tspan></text>
    </g>
    <g transform="translate(-1211 -211)">
      <text id="_.-9" data-name="." transform="translate(1539 265)" fill="#0155e5" font-size="50" font-family="SegoeUI, Segoe UI"><tspan x="0" y="0">.</tspan></text>
    </g>
    <g transform="translate(-1170 -211)">
      <text id="_.-10" data-name="." transform="translate(1539 265)" fill="#0155e5" font-size="50" font-family="SegoeUI, Segoe UI"><tspan x="0" y="0">.</tspan></text>
    </g>
    <g transform="translate(-1539 -124)">
      <text id="_.-11" data-name="." transform="translate(1539 265)" fill="#0155e5" font-size="50" font-family="SegoeUI, Segoe UI"><tspan x="0" y="0">.</tspan></text>
    </g>
    <g transform="translate(-1498 -124)">
      <text id="_.-12" data-name="." transform="translate(1539 265)" fill="#0155e5" font-size="50" font-family="SegoeUI, Segoe UI"><tspan x="0" y="0">.</tspan></text>
    </g>
    <g transform="translate(-1457 -124)">
      <text id="_.-13" data-name="." transform="translate(1539 265)" fill="#0155e5" font-size="50" font-family="SegoeUI, Segoe UI"><tspan x="0" y="0">.</tspan></text>
    </g>
    <g transform="translate(-1416 -124)">
      <text id="_.-14" data-name="." transform="translate(1539 265)" fill="#0155e5" font-size="50" font-family="SegoeUI, Segoe UI"><tspan x="0" y="0">.</tspan></text>
    </g>
    <g transform="translate(-1375 -124)">
      <text id="_.-15" data-name="." transform="translate(1539 265)" fill="#0155e5" font-size="50" font-family="SegoeUI, Segoe UI"><tspan x="0" y="0">.</tspan></text>
    </g>
    <g transform="translate(-1334 -124)">
      <text id="_.-16" data-name="." transform="translate(1539 265)" fill="#0155e5" font-size="50" font-family="SegoeUI, Segoe UI"><tspan x="0" y="0">.</tspan></text>
    </g>
    <g transform="translate(-1293 -124)">
      <text id="_.-17" data-name="." transform="translate(1539 265)" fill="#0155e5" font-size="50" font-family="SegoeUI, Segoe UI"><tspan x="0" y="0">.</tspan></text>
    </g>
    <g transform="translate(-1252 -124)">
      <text id="_.-18" data-name="." transform="translate(1539 265)" fill="#0155e5" font-size="50" font-family="SegoeUI, Segoe UI"><tspan x="0" y="0">.</tspan></text>
    </g>
    <g transform="translate(-1211 -124)">
      <text id="_.-19" data-name="." transform="translate(1539 265)" fill="#0155e5" font-size="50" font-family="SegoeUI, Segoe UI"><tspan x="0" y="0">.</tspan></text>
    </g>
    <g transform="translate(-1170 -124)">
      <text id="_.-20" data-name="." transform="translate(1539 265)" fill="#0155e5" font-size="50" font-family="SegoeUI, Segoe UI"><tspan x="0" y="0">.</tspan></text>
    </g>
    <g transform="translate(-1539 -37)">
      <text id="_.-21" data-name="." transform="translate(1539 265)" fill="#0155e5" font-size="50" font-family="SegoeUI, Segoe UI"><tspan x="0" y="0">.</tspan></text>
    </g>
    <g transform="translate(-1498 -37)">
      <text id="_.-22" data-name="." transform="translate(1539 265)" fill="#0155e5" font-size="50" font-family="SegoeUI, Segoe UI"><tspan x="0" y="0">.</tspan></text>
    </g>
    <g transform="translate(-1457 -37)">
      <text id="_.-23" data-name="." transform="translate(1539 265)" fill="#0155e5" font-size="50" font-family="SegoeUI, Segoe UI"><tspan x="0" y="0">.</tspan></text>
    </g>
    <g transform="translate(-1416 -37)">
      <text id="_.-24" data-name="." transform="translate(1539 265)" fill="#0155e5" font-size="50" font-family="SegoeUI, Segoe UI"><tspan x="0" y="0">.</tspan></text>
    </g>
    <g transform="translate(-1375 -37)">
      <text id="_.-25" data-name="." transform="translate(1539 265)" fill="#0155e5" font-size="50" font-family="SegoeUI, Segoe UI"><tspan x="0" y="0">.</tspan></text>
    </g>
    <g transform="translate(-1334 -37)">
      <text id="_.-26" data-name="." transform="translate(1539 265)" fill="#0155e5" font-size="50" font-family="SegoeUI, Segoe UI"><tspan x="0" y="0">.</tspan></text>
    </g>
    <g transform="translate(-1293 -37)">
      <text id="_.-27" data-name="." transform="translate(1539 265)" fill="#0155e5" font-size="50" font-family="SegoeUI, Segoe UI"><tspan x="0" y="0">.</tspan></text>
    </g>
    <g transform="translate(-1252 -37)">
      <text id="_.-28" data-name="." transform="translate(1539 265)" fill="#0155e5" font-size="50" font-family="SegoeUI, Segoe UI"><tspan x="0" y="0">.</tspan></text>
    </g>
    <g transform="translate(-1211 -37)">
      <text id="_.-29" data-name="." transform="translate(1539 265)" fill="#0155e5" font-size="50" font-family="SegoeUI, Segoe UI"><tspan x="0" y="0">.</tspan></text>
    </g>
    <g transform="translate(-1170 -37)">
      <text id="_.-30" data-name="." transform="translate(1539 265)" fill="#0155e5" font-size="50" font-family="SegoeUI, Segoe UI"><tspan x="0" y="0">.</tspan></text>
    </g>
    <g transform="translate(-1539 50)">
      <text id="_.-31" data-name="." transform="translate(1539 265)" fill="#0155e5" font-size="50" font-family="SegoeUI, Segoe UI"><tspan x="0" y="0">.</tspan></text>
    </g>
    <g transform="translate(-1498 50)">
      <text id="_.-32" data-name="." transform="translate(1539 265)" fill="#0155e5" font-size="50" font-family="SegoeUI, Segoe UI"><tspan x="0" y="0">.</tspan></text>
    </g>
    <g transform="translate(-1457 50)">
      <text id="_.-33" data-name="." transform="translate(1539 265)" fill="#0155e5" font-size="50" font-family="SegoeUI, Segoe UI"><tspan x="0" y="0">.</tspan></text>
    </g>
    <g transform="translate(-1416 50)">
      <text id="_.-34" data-name="." transform="translate(1539 265)" fill="#0155e5" font-size="50" font-family="SegoeUI, Segoe UI"><tspan x="0" y="0">.</tspan></text>
    </g>
    <g transform="translate(-1375 50)">
      <text id="_.-35" data-name="." transform="translate(1539 265)" fill="#0155e5" font-size="50" font-family="SegoeUI, Segoe UI"><tspan x="0" y="0">.</tspan></text>
    </g>
    <g transform="translate(-1334 50)">
      <text id="_.-36" data-name="." transform="translate(1539 265)" fill="#0155e5" font-size="50" font-family="SegoeUI, Segoe UI"><tspan x="0" y="0">.</tspan></text>
    </g>
    <g transform="translate(-1293 50)">
      <text id="_.-37" data-name="." transform="translate(1539 265)" fill="#0155e5" font-size="50" font-family="SegoeUI, Segoe UI"><tspan x="0" y="0">.</tspan></text>
    </g>
    <g transform="translate(-1252 50)">
      <text id="_.-38" data-name="." transform="translate(1539 265)" fill="#0155e5" font-size="50" font-family="SegoeUI, Segoe UI"><tspan x="0" y="0">.</tspan></text>
    </g>
    <g transform="translate(-1211 50)">
      <text id="_.-39" data-name="." transform="translate(1539 265)" fill="#0155e5" font-size="50" font-family="SegoeUI, Segoe UI"><tspan x="0" y="0">.</tspan></text>
    </g>
    <g transform="translate(-1170 50)">
      <text id="_.-40" data-name="." transform="translate(1539 265)" fill="#0155e5" font-size="50" font-family="SegoeUI, Segoe UI"><tspan x="0" y="0">.</tspan></text>
    </g>
  </g>
</svg>
